<?xml version="1.0" encoding="UTF-8" standalone="no"?>
<!-- Created with Inkscape (http://www.inkscape.org/) -->

<svg
   xmlns:dc="http://purl.org/dc/elements/1.1/"
   xmlns:cc="http://creativecommons.org/ns#"
   xmlns:rdf="http://www.w3.org/1999/02/22-rdf-syntax-ns#"
   xmlns:svg="http://www.w3.org/2000/svg"
   xmlns="http://www.w3.org/2000/svg"
   xmlns:sodipodi="http://sodipodi.sourceforge.net/DTD/sodipodi-0.dtd"
   xmlns:inkscape="http://www.inkscape.org/namespaces/inkscape"
   width="16"
   height="16"
   id="svg3858"
   version="1.1"
   inkscape:version="0.48.4 r9939"
   sodipodi:docname="bittorrent-symbolic.svg">
  <defs
     id="defs3860" />
  <sodipodi:namedview
     id="base"
     pagecolor="#ffffff"
     bordercolor="#666666"
     borderopacity="1.0"
     inkscape:pageopacity="0.0"
     inkscape:pageshadow="2"
     inkscape:zoom="32.375"
     inkscape:cx="2.9145064"
     inkscape:cy="8"
     inkscape:document-units="px"
     inkscape:current-layer="text3866"
     showgrid="false"
     inkscape:window-width="1366"
     inkscape:window-height="705"
     inkscape:window-x="0"
     inkscape:window-y="27"
     inkscape:window-maximized="1" />
  <metadata
     id="metadata3863">
    <rdf:RDF>
      <cc:Work
         rdf:about="">
        <dc:format>image/svg+xml</dc:format>
        <dc:type
           rdf:resource="http://purl.org/dc/dcmitype/StillImage" />
        <dc:title />
      </cc:Work>
    </rdf:RDF>
  </metadata>
  <g
     inkscape:label="Layer 1"
     inkscape:groupmode="layer"
     id="layer1"
     transform="translate(0,-1036.3622)">
    <g
       transform="scale(1.0259514,0.97470504)"
       style="font-size:11.69668865px;font-style:normal;font-variant:normal;font-weight:normal;font-stretch:normal;line-height:125%;letter-spacing:0px;word-spacing:0px;fill:#bebebe;fill-opacity:1;stroke:none;font-family:New Rocker;-inkscape-font-specification:New Rocker"
       id="text3866">
      <path
         d="m 2.7760143,1068.143 c -0.015599,0.3197 -0.023396,0.6355 -0.023393,0.9474 -3.1e-6,0.3119 -3.1e-6,0.6238 0,0.9357 -3.1e-6,0.1482 -3.1e-6,0.2964 0,0.4445 -3.1e-6,0.1404 0.00779,0.2885 0.023393,0.4445 0.4756618,-0.1092 0.8928433,-0.2456 1.2515457,-0.4094 0.3664915,-0.1637 0.7017963,-0.3743 1.0059153,-0.6316 -0.0078,-0.094 -0.015601,-0.2223 -0.023393,-0.386 -5.4e-6,-0.1716 -5.4e-6,-0.2924 0,-0.3626 -5.4e-6,-0.086 0.00389,-0.1677 0.011697,-0.2456 0.00779,-0.078 0.019489,-0.1716 0.03509,-0.2808 -0.4678724,-0.01 -0.8850539,-0.047 -1.2515457,-0.1169 -0.3587022,-0.07 -0.7018047,-0.1833 -1.0293086,-0.3392 m 4.210808,3.2283 c -0.194952,0.4678 -0.2924243,0.9903 -0.2924173,1.5673 -7e-6,0.1794 0.00779,0.3704 0.023393,0.5732 0.023386,0.1949 0.054577,0.3898 0.093573,0.5848 0.04678,0.1949 0.1013641,0.3821 0.1637537,0.5614 0.062375,0.1794 0.1364539,0.3392 0.2222371,0.4796 -0.2183456,0.039 -0.4717736,0.09 -0.7602848,0.152 -0.2885248,0.055 -0.5926384,0.1365 -0.9123417,0.2457 -0.3119173,0.1013 -0.6238287,0.2378 -0.9357351,0.4094 -0.3119163,0.1715 -0.5965355,0.386 -0.8538583,0.6433 -0.2495332,-0.2184 -0.5224556,-0.4094 -0.8187682,-0.5732 -0.2885213,-0.1559 -0.5926349,-0.2885 -0.9123417,-0.3976 -0.3119137,-0.1092 -0.6316229,-0.1989 -0.9591285,-0.2691 -0.32750832,-0.07 -0.64721749,-0.1208 -0.95912844,-0.152 l -0.02339338,-0.047 c 0.17934864,-0.055 0.33530433,-0.156 0.46786755,-0.3041 0.13256146,-0.156 0.24173044,-0.3314 0.32750728,-0.5264 0.0935722,-0.1949 0.15985339,-0.3977 0.19884369,-0.6082 0.046785,-0.2183 0.070179,-0.4211 0.07018,-0.6082 -1.4e-6,-0.1248 -0.0078,-0.2652 -0.023393,-0.4211 -0.015597,-0.156 -0.03899,-0.308 -0.07018,-0.4562 -0.031192,-0.1559 -0.0662825,-0.2963 -0.10527016,-0.4211 -0.0311924,-0.1325 -0.0662824,-0.2378 -0.1052702,-0.3158 0.13256117,-0.2417 0.22223566,-0.5029 0.26902386,-0.7837 0.054583,-0.2807 0.081875,-0.5614 0.081877,-0.8421 -1.5e-6,-0.2729 -0.019496,-0.5342 -0.058483,-0.7837 -0.03899,-0.2495 -0.089676,-0.4757 -0.15205699,-0.6784 -0.27292378,-0.086 -0.49516064,-0.2261 -0.66671126,-0.4211 -0.16375412,-0.1949 -0.26512532,-0.4912 -0.3041139,-0.8889 0.24952877,0.039 0.49126009,0.074 0.72519469,0.1052 0.24173026,0.031 0.47956266,0.047 0.71349806,0.047 0.3508985,0 0.6784054,-0.047 0.9825218,-0.1403 0.3119086,-0.1014 0.6316178,-0.2807 0.9591285,-0.5381 0.070176,0.07 0.2066375,0.1599 0.4093841,0.269 0.210536,0.1092 0.4522674,0.2145 0.7251947,0.3159 0.2807154,0.1013 0.5770312,0.191 0.8889483,0.269 0.3197034,0.07 0.6199181,0.1053 0.900645,0.1052 0.1091624,1e-4 0.2144325,-0 0.3158106,-0.012 0.1013643,-0.01 0.2066344,-0.019 0.3158106,-0.035 -0.023401,0.07 -0.050693,0.1559 -0.081877,0.2573 -0.023401,0.094 -0.058491,0.191 -0.1052702,0.2924 -0.038996,0.094 -0.085783,0.1833 -0.1403603,0.269 -0.046794,0.078 -0.105277,0.1365 -0.1754503,0.1755 -0.0078,0.07 -0.015602,0.1442 -0.023393,0.2222 -6.7e-6,0.07 -6.7e-6,0.1443 0,0.2223 -6.7e-6,0.2183 0.015589,0.4444 0.046787,0.6784 0.031184,0.2261 0.085769,0.4639 0.1637536,0.7135 -0.2105471,0.086 -0.467874,0.2183 -0.7719814,0.3976 -0.296322,0.1794 -0.6199301,0.3354 -0.9708252,0.4679 0.2729173,0.055 0.5380419,0.098 0.7953748,0.1287 0.2573209,0.031 0.5185467,0.047 0.7836782,0.047 0.1793422,0 0.3469946,-0.012 0.5029576,-0.035 l 0.03509,0.059 m -1.8948636,1.0644 c -0.2573323,-0.078 -0.4834681,-0.1443 -0.6784079,-0.1989 -0.1871516,-0.062 -0.3703996,-0.117 -0.5497444,-0.1637 -0.1715555,-0.047 -0.3470056,-0.086 -0.526351,-0.117 -0.1793527,-0.039 -0.3820951,-0.078 -0.6082278,-0.117 -0.023396,0.2106 -0.042891,0.4367 -0.058484,0.6784 -0.0078,0.2418 -0.0117,0.464 -0.011697,0.6667 -3e-6,0.234 0.0039,0.4445 0.011697,0.6317 0.015593,0.1871 0.042885,0.3977 0.081877,0.6316 0.077975,0.023 0.1715481,0.059 0.2807205,0.1053 0.1091656,0.039 0.2183346,0.082 0.3275073,0.1286 0.1091653,0.047 0.2144353,0.098 0.3158106,0.1521 0.1013672,0.055 0.1871428,0.1052 0.2573271,0.152 0.2105359,-0.1559 0.4093794,-0.2807 0.5965311,-0.3743 0.187142,-0.1013 0.4210755,-0.2066 0.7018014,-0.3158 -0.038995,-0.2417 -0.070186,-0.5302 -0.093574,-0.8655 -0.015601,-0.3353 -0.031197,-0.6667 -0.046787,-0.9942"
         style=""
         id="path3069" />
      <path
         d="m 15.603078,1067.0084 c -0.187155,0.1638 -0.393796,0.3197 -0.619924,0.4679 -0.218346,0.1481 -0.44838,0.2768 -0.690105,0.386 -0.241738,0.1091 -0.491267,0.1988 -0.748588,0.269 -0.257333,0.062 -0.51466,0.094 -0.771981,0.093 -0.08578,10e-5 -0.167658,10e-5 -0.245631,0 -0.07798,10e-5 -0.155961,-0 -0.233934,-0.012 -0.0234,0.2339 -0.03509,0.4717 -0.03509,0.7134 -4e-6,0.6629 0.0039,1.3296 0.0117,2.0002 0.0078,0.6706 0.01169,1.3841 0.0117,2.1405 -5e-6,0.4055 0.07018,0.7993 0.21054,1.1813 0.148153,0.3743 0.358693,0.6473 0.631621,0.8188 -0.327512,0.156 -0.604334,0.3197 -0.830465,0.4913 -0.218342,0.1793 -0.413287,0.4327 -0.584834,0.7603 -0.132567,-0.3198 -0.339208,-0.5771 -0.619925,-0.772 -0.280723,-0.1872 -0.596534,-0.347 -0.947431,-0.4796 0.155953,-0.2261 0.27292,-0.5185 0.3509,-0.8772 0.07797,-0.3665 0.116964,-0.7213 0.116967,-1.0644 -3e-6,-0.3353 -3e-6,-0.6317 0,-0.889 -3e-6,-0.2651 -3e-6,-0.5107 0,-0.7369 0.0078,-0.2261 0.01169,-0.4444 0.0117,-0.655 0.0078,-0.2105 0.01169,-0.4367 0.0117,-0.6784 0.0078,-0.2417 0.01169,-0.5069 0.0117,-0.7954 -3e-6,-0.2885 -3e-6,-0.6277 0,-1.0176 -3e-6,-0.062 -3e-6,-0.1208 0,-0.1754 -3e-6,-0.055 -0.0078,-0.1131 -0.02339,-0.1755 -0.514657,-0.094 -1.0059174,-0.1871 -1.4737829,-0.2807 -0.4600709,-0.1014 -0.8811512,-0.1521 -1.2632424,-0.1521 -0.1715515,0 -0.3547995,0.02 -0.5497444,0.059 l -0.011697,-0.035 c 0.4210807,-0.1247 0.7641832,-0.2768 1.0293086,-0.4561 0.2729218,-0.1794 0.5458442,-0.3938 0.8187682,-0.6434 0.4054833,0.117 0.7485858,0.2106 1.0293086,0.2808 0.288515,0.07 0.55364,0.1247 0.795375,0.1637 0.249526,0.039 0.491257,0.066 0.725195,0.082 0.241727,0.01 0.514649,0.012 0.818768,0.012 -0.07798,-0.1326 -0.132567,-0.2495 -0.163754,-0.3509 -0.0312,-0.1092 -0.05069,-0.2222 -0.05848,-0.3392 0.257322,0.1637 0.495154,0.2924 0.713498,0.386 0.22613,0.086 0.440569,0.152 0.643318,0.1988 0.202736,0.039 0.405478,0.062 0.608227,0.07 0.202736,0.01 0.413276,0.012 0.631622,0.012 0.124757,0 0.237825,-0 0.339204,-0.012 0.109161,-0.01 0.21833,-0.019 0.327507,-0.035 l 0.02339,0.047"
         style=""
         id="path3071" />
    </g>
  </g>
</svg>
