<?xml version="1.0" encoding="UTF-8" standalone="no"?>
<svg
   xmlns:dc="http://purl.org/dc/elements/1.1/"
   xmlns:cc="http://creativecommons.org/ns#"
   xmlns:rdf="http://www.w3.org/1999/02/22-rdf-syntax-ns#"
   xmlns:svg="http://www.w3.org/2000/svg"
   xmlns="http://www.w3.org/2000/svg"
   xmlns:sodipodi="http://sodipodi.sourceforge.net/DTD/sodipodi-0.dtd"
   xmlns:inkscape="http://www.inkscape.org/namespaces/inkscape"
   height="1024"
   width="1024"
   id="svg2"
   version="1.1"
   inkscape:version="0.48.4 r9939"
   sodipodi:docname="bcloud#2.svg"
   inkscape:export-filename="/home/allen/Desktop/bcloud.png"
   inkscape:export-xdpi="11.25"
   inkscape:export-ydpi="11.25">
  <metadata
     id="metadata10">
    <rdf:RDF>
      <cc:Work
         rdf:about="">
        <dc:format>image/svg+xml</dc:format>
        <dc:type
           rdf:resource="http://purl.org/dc/dcmitype/StillImage" />
        <dc:title></dc:title>
      </cc:Work>
    </rdf:RDF>
  </metadata>
  <defs
     id="defs8" />
  <sodipodi:namedview
     pagecolor="#ffffff"
     bordercolor="#666666"
     borderopacity="1"
     objecttolerance="10"
     gridtolerance="10"
     guidetolerance="10"
     inkscape:pageopacity="0"
     inkscape:pageshadow="2"
     inkscape:window-width="1366"
     inkscape:window-height="705"
     id="namedview6"
     showgrid="false"
     inkscape:zoom="0.50585938"
     inkscape:cx="511.99999"
     inkscape:cy="591.07335"
     inkscape:window-x="0"
     inkscape:window-y="27"
     inkscape:window-maximized="1"
     inkscape:current-layer="layer3"
     showguides="true"
     inkscape:guide-bbox="true" />
  <g
     inkscape:groupmode="layer"
     id="layer1"
     inkscape:label="Layer"
     style="display:none"
     sodipodi:insensitive="true">
    <path
       d="m 11.99999,712.88496 q 0,-16.10466 11.55145,-27.5715 11.55141,-10.70842 26.30687,-10.70842 h 237.60546 q 48.56658,0 82.96795,34.73925 34.4016,34.73792 34.31748,83.38934 0,48.98808 -34.14887,83.38938 -34.14837,34.4014 -83.13656,34.4014 -48.98827,0 -83.64251,-34.6539 -10.28666,-10.2875 -10.28666,-26.307 0,-16.0203 10.11802,-26.56051 10.11804,-10.53896 26.55987,-10.45462 15.6829,0 27.15008,10.62409 13.1534,12.81534 30.1012,12.81534 17.28493,0 30.01684,-12.56284 12.73188,-12.56291 12.73188,-30.69129 0,-17.28471 -12.73188,-29.84871 -12.73191,-12.56296 -30.01684,-12.56296 H 49.85831 q -15.59864,0 -26.72848,-11.13 -11.12984,-11.12926 -11.12984,-26.30705 z m 0,-133.38941 q 0,-15.68295 11.55145,-27.14954 11.5514,-10.70841 26.30687,-10.70841 h 462.81605 q 17.2848,0 30.01688,-12.81642 12.73237,-12.81646 12.73237,-30.43879 0,-17.62158 -12.73237,-30.26959 -12.73208,-12.64701 -30.01688,-12.56291 -18.12754,0 -30.10116,12.39475 -11.55096,9.86454 -27.5715,9.86454 -16.02054,0 -26.13863,-10.11804 -10.11729,-10.11729 -10.11729,-26.13783 0,-16.44221 9.86484,-26.72871 33.38937,-33.38946 84.06374,-33.38946 48.98805,0 83.30509,34.14792 34.31729,34.14891 34.40133,82.79933 0.0858,48.65146 -34.40133,82.96854 -34.48546,34.31725 -83.30509,34.40133 H 49.85831 q -15.59864,0 -26.72848,-10.53995 Q 11.99999,594.67334 11.99999,579.49555 z M 106.2664,475.70114 q 0,5.39649 6.99839,5.39649 h 63.40638 q 5.39626,0 9.5278,-6.57663 14.75553,-35.83504 46.03707,-59.2745 31.28162,-23.44041 69.98316,-26.3915 l 23.10291,-3.28833 q 8.60035,0 8.60035,-7.41987 l 3.28833,-22.59708 q 7.08265,-71.24784 60.37103,-119.64583 53.28813,-48.39792 125.80071,-48.39792 72.85042,0 126.39133,47.97633 53.54167,47.97646 60.87655,120.06742 l 3.2892,25.88542 q 0,7.41987 7.84088,7.41987 h 70.82671 q 59.69641,0 102.27621,41.99013 42.58,41.98974 42.6652,100.84254 0.086,58.85387 -42.6652,100.92771 -42.7482,42.074 -102.27621,41.98971 H 489.14999 q -7.84125,0 -7.84125,7.4202 v 60.87655 q 0,7.4202 7.84125,7.4202 H 792.6072 q 59.69641,0 110.11811,-29.17325 50.4218,-29.17437 79.8479,-79.67958 Q 1012,590.96322 1012,531.68772 1012,471.9913 982.57321,421.82288 953.14711,371.6543 902.72531,342.31196 852.30361,312.96959 792.6072,313.13834 h -13.57492 q -20.574,-87.68971 -92.07487,-143.6763 -71.50088,-55.98645 -163.57488,-55.98645 -93.08579,0 -164.75524,57.8415 -71.66949,57.84151 -90.97808,147.97633 -56.40806,13.1535 -100,54.13158 -43.5919,40.97775 -60.53961,96.96425 v 1.60205 q -0.8432,2.10808 -0.8432,3.70987 z"
       id="path4"
       inkscape:connector-curvature="0"
       style="fill:#fafafa;fill-opacity:0.86666667;stroke:none" />
  </g>
  <g
     inkscape:groupmode="layer"
     id="layer2"
     inkscape:label="Layer#1"
     style="display:inline"
     sodipodi:insensitive="true">
    <path
       d="m 11.99999,712.88495 c 0,-10.73643 3.850485,-19.92693 11.551454,-27.5715 7.700939,-7.13895 16.469897,-10.70842 26.306875,-10.70842 l 237.605451,0 c 32.37772,0 60.0337,11.57975 82.96795,34.73925 22.9344,23.15861 34.37356,50.95506 34.31748,83.38934 0,32.65869 -11.38296,60.45516 -34.14887,83.38941 -22.76558,22.93425 -50.47777,34.40138 -83.13656,34.40138 -32.65885,0 -60.53968,-11.55129 -83.64251,-34.65387 -6.85777,-6.85834 -10.28666,-15.62734 -10.28666,-26.30701 0,-10.68019 3.37267,-19.5337 10.11802,-26.56053 6.74536,-7.02597 15.59865,-10.51085 26.55987,-10.45462 10.45527,0 19.50529,3.54136 27.15008,10.62409 8.76893,8.54359 18.80267,12.81538 30.1012,12.81538 11.52329,0 21.5289,-4.18762 30.01684,-12.56287 8.48792,-8.37527 12.73188,-18.6057 12.73188,-30.69129 0,-11.52314 -4.24396,-21.47271 -12.73188,-29.84871 -8.48794,-8.37531 -18.49355,-12.56296 -30.01684,-12.56296 l -237.605451,0 c -10.399097,0 -19.308593,-3.71 -26.728487,-11.13 C 15.709937,731.77251 11.99999,723.00349 11.99999,712.88495 z m 0,-133.38941 c 0,-10.4553 3.850485,-19.50515 11.551454,-27.14954 7.700936,-7.13893 16.469894,-10.7084 26.306875,-10.7084 l 462.816041,0 c 11.5232,0 21.52883,-4.27214 30.01688,-12.81642 8.48825,-8.54431 12.73237,-18.69057 12.73237,-30.43879 0,-11.74772 -4.24412,-21.83758 -12.73237,-30.26959 -8.48805,-8.43134 -18.49368,-12.61898 -30.01688,-12.56291 -12.08503,0 -22.11875,4.13158 -30.10116,12.39475 -7.70064,6.57636 -16.89114,9.86454 -27.5715,9.86454 -10.68036,0 -19.39324,-3.37268 -26.13863,-10.11803 -6.74486,-6.74487 -10.11729,-15.45748 -10.11729,-26.13783 0,-10.96148 3.28828,-19.87105 9.86484,-26.72871 22.25958,-22.25964 50.28083,-33.38946 84.06374,-33.38946 32.6587,0 60.42706,11.38264 83.30509,34.14792 22.87819,22.76594 34.3453,50.36572 34.40133,82.79933 0.0572,32.43431 -11.40991,60.09049 -34.40133,82.96854 -22.99031,22.87817 -50.75867,34.34528 -83.30509,34.40133 l -462.816041,0 c -10.399097,0 -19.308593,-3.51332 -26.728487,-10.53995 C 15.709937,598.18633 11.99999,589.61407 11.99999,579.49554 z"
       id="path4-3"
       inkscape:connector-curvature="0"
       style="fill:#00ac49;fill-opacity:0.99215686;stroke:none"
       sodipodi:nodetypes="scssccsscscccssscsscsscsssscccssscsscccscs" />
  </g>
  <g
     inkscape:groupmode="layer"
     id="layer3"
     inkscape:label="Layer#2"
     style="display:inline"
     sodipodi:insensitive="true">
    <path
       d="m 106.26643,475.70114 c 0,3.59766 2.3328,5.39649 6.99839,5.39649 l 63.40638,0 c 3.59751,0 6.77344,-2.19221 9.5278,-6.57663 9.83702,-23.89003 25.18271,-43.64819 46.03707,-59.2745 20.85441,-15.62694 44.18213,-24.42411 69.98316,-26.3915 l 23.10291,-3.28833 c 5.73357,0 8.60035,-2.47329 8.60035,-7.41987 l 3.28833,-22.59708 c 4.72177,-47.49856 24.84544,-87.3805 60.37103,-119.64583 35.52542,-32.26528 77.45899,-48.39792 125.80071,-48.39792 48.56695,0 90.69739,15.99211 126.39133,47.97633 35.69445,31.98431 55.98663,72.00678 60.87655,120.06742 l 3.2892,25.88542 c 0,4.94658 2.61363,7.41987 7.84088,7.41987 l 70.82671,0 c 39.79761,0 73.88968,13.99671 102.27621,41.99013 28.38667,27.99316 42.6084,61.60734 42.6652,100.84254 0.0573,39.23591 -14.1644,72.87848 -42.6652,100.92771 -28.4988,28.04933 -62.59087,42.0459 -102.27621,41.98971 l -303.45721,0 c -5.2275,0 -7.84125,2.4734 -7.84125,7.4202 l 0,60.87655 c 0,4.9468 2.61375,7.4202 7.84125,7.4202 l 303.45721,0 c 39.79761,0 76.50364,-9.72442 110.11811,-29.17325 33.61453,-19.44958 60.23051,-46.00944 79.84794,-79.67958 C 1002.1911,607.79855 1012,571.20472 1012,531.68772 c 0,-39.79761 -9.8089,-76.41923 -29.42672,-109.86484 -19.61743,-33.44572 -46.23341,-59.94936 -79.84794,-79.51092 -33.61447,-19.56158 -70.3205,-29.28612 -110.11811,-29.17362 l -13.57492,0 c -13.716,-58.45981 -44.40762,-106.35191 -92.07487,-143.6763 -47.66725,-37.3243 -102.19221,-55.98645 -163.57488,-55.98645 -62.05719,0 -116.97561,19.2805 -164.75524,57.8415 -47.77966,38.56101 -78.10569,87.88645 -90.97808,147.97633 -37.60537,8.769 -70.93871,26.81286 -100,54.13158 -29.06127,27.3185 -49.24114,59.63992 -60.53961,96.96425 l 0,1.60205 c -0.56213,1.40539 -0.8432,2.64201 -0.8432,3.70987 z"
       id="path4-6"
       inkscape:connector-curvature="0"
       style="fill:#ffffff;fill-opacity:0.98039216;stroke:none;display:inline"
       sodipodi:nodetypes="cssccccccsssccssscccssssscssssccssscscccc" />
  </g>
</svg>
