<?xml version="1.0" encoding="UTF-8" standalone="no"?>
<svg
   xmlns:dc="http://purl.org/dc/elements/1.1/"
   xmlns:cc="http://creativecommons.org/ns#"
   xmlns:rdf="http://www.w3.org/1999/02/22-rdf-syntax-ns#"
   xmlns:svg="http://www.w3.org/2000/svg"
   xmlns="http://www.w3.org/2000/svg"
   xmlns:sodipodi="http://sodipodi.sourceforge.net/DTD/sodipodi-0.dtd"
   xmlns:inkscape="http://www.inkscape.org/namespaces/inkscape"
   height="256"
   width="256"
   id="svg2"
   version="1.1"
   inkscape:version="0.48.4 r9939"
   sodipodi:docname="gcloud.svg"
   inkscape:export-filename="/home/allen/dev/python/projects/gcloud/share/icons/hicolor/128x128/apps/gcloud.png"
   inkscape:export-xdpi="45"
   inkscape:export-ydpi="45">
  <metadata
     id="metadata10">
    <rdf:RDF>
      <cc:Work
         rdf:about="">
        <dc:format>image/svg+xml</dc:format>
        <dc:type
           rdf:resource="http://purl.org/dc/dcmitype/StillImage" />
        <dc:title></dc:title>
      </cc:Work>
    </rdf:RDF>
  </metadata>
  <defs
     id="defs8" />
  <sodipodi:namedview
     pagecolor="#ffffff"
     bordercolor="#666666"
     borderopacity="1"
     objecttolerance="10"
     gridtolerance="10"
     guidetolerance="10"
     inkscape:pageopacity="0"
     inkscape:pageshadow="2"
     inkscape:window-width="1366"
     inkscape:window-height="705"
     id="namedview6"
     showgrid="false"
     inkscape:zoom="2.0234375"
     inkscape:cx="101.42889"
     inkscape:cy="128"
     inkscape:window-x="0"
     inkscape:window-y="27"
     inkscape:window-maximized="1"
     inkscape:current-layer="svg2" />
  <path
     d="m 8,176.21239 q 0,-3.86512 2.772349,-6.61716 2.772338,-2.57002 6.31365,-2.57002 h 57.025308 q 11.655979,0 19.912308,8.33742 8.256385,8.3371 8.236195,20.01344 0,11.75713 -8.195728,20.01346 -8.195609,8.25633 -19.952775,8.25633 -11.757185,0 -20.074203,-8.31693 -2.468797,-2.469 -2.468797,-6.31368 0,-3.84487 2.428325,-6.37453 2.428329,-2.52935 6.374368,-2.50911 3.763897,0 6.516019,2.54978 3.156817,3.07569 7.224288,3.07569 4.148384,0 7.204041,-3.01509 3.055652,-3.0151 3.055652,-7.36591 0,-4.14833 -3.055652,-7.16369 -3.055657,-3.01511 -7.204041,-3.01511 H 17.085999 q -3.743675,0 -6.414837,-2.6712 Q 8,179.85506 8,176.21239 z m 0,-32.01346 q 0,-3.76391 2.772349,-6.51589 2.772337,-2.57002 6.31365,-2.57002 H 128.16185 q 4.14835,0 7.20405,-3.07594 3.05577,-3.07595 3.05577,-7.30531 0,-4.22918 -3.05577,-7.2647 -3.0557,-3.03528 -7.20405,-3.0151 -4.35061,0 -7.22428,2.97474 -2.77223,2.36749 -6.61716,2.36749 -3.84493,0 -6.27327,-2.42833 -2.42815,-2.42815 -2.42815,-6.27308 0,-3.94613 2.36756,-6.41489 8.01345,-8.01347 20.1753,-8.01347 11.75713,0 19.99322,8.1955 8.23615,8.19574 8.25632,19.87184 0.0206,11.67635 -8.25632,19.91245 -8.27651,8.23614 -19.99322,8.25632 H 17.085999 q -3.743675,0 -6.414837,-2.52959 Q 8,147.8416 8,144.19893 z m 22.623939,-24.91066 q 0,1.29516 1.679614,1.29516 h 15.217531 q 1.295101,0 2.28667,-1.57839 3.541329,-8.60041 11.048899,-14.22588 7.507588,-5.6257 16.795958,-6.33396 l 5.544698,-0.7892 q 2.064083,0 2.064083,-1.780773 l 0.789201,-5.423295 q 1.699835,-17.099485 14.489047,-28.715003 12.78915,-11.615503 30.19217,-11.615503 17.4841,0 30.33392,11.514321 12.85,11.514352 14.61037,28.816185 l 0.78941,6.212498 q 0,1.78077 1.88181,1.78077 h 16.99841 q 14.32713,0 24.54629,10.07763 10.2192,10.07754 10.23964,24.20221 0.0206,14.12493 -10.23964,24.22265 -10.25957,10.09776 -24.54629,10.07753 H 122.516 q -1.8819,0 -1.8819,1.78085 v 14.61037 q 0,1.78085 1.8819,1.78085 h 72.82973 q 14.32713,0 26.42834,-7.00158 12.10125,-7.00185 19.1635,-19.1231 Q 248,146.95117 248,132.72505 q 0,-14.32714 -7.06243,-26.36756 -7.06225,-12.040457 -19.1635,-19.08262 -12.10121,-7.042167 -26.42834,-7.001667 h -3.25798 Q 187.14999,59.22767 169.98978,45.79089 152.82957,32.35414 130.73181,32.35414 q -22.34059,0 -39.541257,13.881958 -17.200678,13.881962 -21.834739,35.514326 -13.537935,3.15684 -24,12.991573 -10.462057,9.834663 -14.529508,23.271423 v 0.38449 q -0.202367,0.50594 -0.202367,0.89037 z"
     id="path4"
     inkscape:connector-curvature="0" />
</svg>
