<?xml version="1.0" encoding="UTF-8" standalone="no"?>
<svg
   xmlns:dc="http://purl.org/dc/elements/1.1/"
   xmlns:cc="http://creativecommons.org/ns#"
   xmlns:rdf="http://www.w3.org/1999/02/22-rdf-syntax-ns#"
   xmlns:svg="http://www.w3.org/2000/svg"
   xmlns="http://www.w3.org/2000/svg"
   xmlns:sodipodi="http://sodipodi.sourceforge.net/DTD/sodipodi-0.dtd"
   xmlns:inkscape="http://www.inkscape.org/namespaces/inkscape"
   height="1024"
   width="1024"
   id="svg2"
   version="1.1"
   inkscape:version="0.48.4 r9939"
   sodipodi:docname="bcloud.svg"
   inkscape:export-filename="/home/allen/dev/python/projects/bcloud/share/icons/hicolor/16x16/apps/bcloud.png"
   inkscape:export-xdpi="1.41"
   inkscape:export-ydpi="1.41">
  <metadata
     id="metadata10">
    <rdf:RDF>
      <cc:Work
         rdf:about="">
        <dc:format>image/svg+xml</dc:format>
        <dc:type
           rdf:resource="http://purl.org/dc/dcmitype/StillImage" />
        <dc:title></dc:title>
      </cc:Work>
    </rdf:RDF>
  </metadata>
  <defs
     id="defs8" />
  <sodipodi:namedview
     pagecolor="#ffffff"
     bordercolor="#666666"
     borderopacity="1"
     objecttolerance="10"
     gridtolerance="10"
     guidetolerance="10"
     inkscape:pageopacity="0"
     inkscape:pageshadow="2"
     inkscape:window-width="1366"
     inkscape:window-height="705"
     id="namedview6"
     showgrid="false"
     inkscape:zoom="0.50585938"
     inkscape:cx="510.02317"
     inkscape:cy="512"
     inkscape:window-x="0"
     inkscape:window-y="27"
     inkscape:window-maximized="1"
     inkscape:current-layer="svg2" />
  <path
     d="m 12,712.88495 q 0,-16.10466 11.551454,-27.5715 11.551408,-10.70842 26.306875,-10.70842 H 287.46378 q 48.56658,0 82.96795,34.73925 34.4016,34.73792 34.31748,83.38934 0,48.98804 -34.14887,83.38941 -34.14837,34.40138 -83.13656,34.40138 -48.98827,0 -83.64251,-34.65388 -10.28666,-10.2875 -10.28666,-26.307 0,-16.02029 10.11802,-26.56054 10.11804,-10.53896 26.55987,-10.45462 15.6829,0 27.15008,10.62409 13.1534,12.81538 30.1012,12.81538 17.28493,0 30.01684,-12.56288 12.73188,-12.56291 12.73188,-30.69129 0,-17.28471 -12.73188,-29.84871 Q 304.74871,750.322 287.46378,750.322 H 49.858329 q -15.598646,0 -26.728487,-11.13 Q 12,728.06274 12,712.88495 z M 12,579.49554 Q 12,563.81259 23.551454,552.346 35.102858,541.63759 49.858329,541.63759 H 512.67437 q 17.2848,0 30.01688,-12.81642 12.73237,-12.81646 12.73237,-30.43879 0,-17.62158 -12.73237,-30.26959 -12.73208,-12.64701 -30.01688,-12.56291 -18.12754,0 -30.10116,12.39475 -11.55096,9.86454 -27.5715,9.86454 -16.02054,0 -26.13863,-10.11804 -10.11729,-10.11729 -10.11729,-26.13783 0,-16.44221 9.86484,-26.72871 33.38937,-33.38946 84.06374,-33.38946 48.98805,0 83.30509,34.14792 34.31729,34.14891 34.40133,82.79933 0.0858,48.65146 -34.40133,82.96854 -34.48546,34.31725 -83.30509,34.40133 H 49.858329 q -15.598646,0 -26.728487,-10.53995 Q 12,594.67333 12,579.49554 z m 94.26641,-103.79441 q 0,5.39649 6.99839,5.39649 h 63.40638 q 5.39626,0 9.5278,-6.57663 14.75553,-35.83504 46.03707,-59.2745 31.28162,-23.44041 69.98316,-26.3915 l 23.10291,-3.28833 q 8.60035,0 8.60035,-7.41987 l 3.28833,-22.59708 q 7.08265,-71.24784 60.37103,-119.64583 53.28813,-48.39792 125.80071,-48.39792 72.85042,0 126.39133,47.97633 53.54167,47.97646 60.87655,120.06742 l 3.2892,25.88542 q 0,7.41987 7.84088,7.41987 h 70.82671 q 59.69637,0 102.27621,41.99013 42.58,41.98974 42.66516,100.84254 0.0858,58.85387 -42.66516,100.92771 -42.74821,42.074 -102.27621,41.98971 H 489.15 q -7.84125,0 -7.84125,7.4202 v 60.87655 q 0,7.4202 7.84125,7.4202 h 303.45721 q 59.69637,0 110.11808,-29.17325 50.42188,-29.17437 79.84792,-79.67958 Q 1012,590.96321 1012,531.68771 1012,471.99129 982.57321,421.82287 953.14717,371.65429 902.72529,342.31195 852.30358,312.96958 792.60721,313.13833 h -13.57492 q -20.574,-87.68971 -92.07487,-143.6763 -71.50088,-55.98645 -163.57488,-55.98645 -93.08579,0 -164.75524,57.8415 -71.66949,57.84151 -90.97808,147.97633 -56.40806,13.1535 -100,54.13158 -43.5919,40.97775 -60.53961,96.96425 v 1.60205 q -0.8432,2.10808 -0.8432,3.70987 z"
     id="path4"
     inkscape:connector-curvature="0"
     style="fill:#2a2a2a;fill-opacity:0.86666667;stroke:none" />
</svg>
