<?xml version="1.0" encoding="UTF-8" standalone="no"?>
<!-- Generator: Adobe Illustrator 16.0.3, SVG Export Plug-In . SVG Version: 6.00 Build 0)  -->

<svg
   xmlns:dc="http://purl.org/dc/elements/1.1/"
   xmlns:cc="http://creativecommons.org/ns#"
   xmlns:rdf="http://www.w3.org/1999/02/22-rdf-syntax-ns#"
   xmlns:svg="http://www.w3.org/2000/svg"
   xmlns="http://www.w3.org/2000/svg"
   xmlns:sodipodi="http://sodipodi.sourceforge.net/DTD/sodipodi-0.dtd"
   xmlns:inkscape="http://www.inkscape.org/namespaces/inkscape"
   version="1.1"
   id="Layer_1"
   x="0px"
   y="0px"
   width="16"
   height="16"
   viewBox="0 0 16 16.000001"
   enable-background="new 0 0 97.986 67.465"
   xml:space="preserve"
   inkscape:version="0.48.4 r9939"
   sodipodi:docname="cloud.svg"><metadata
     id="metadata3052"><rdf:RDF><cc:Work
         rdf:about=""><dc:format>image/svg+xml</dc:format><dc:type
           rdf:resource="http://purl.org/dc/dcmitype/StillImage" /><dc:title></dc:title></cc:Work></rdf:RDF></metadata><defs
     id="defs3050" /><sodipodi:namedview
     pagecolor="#ffffff"
     bordercolor="#666666"
     borderopacity="1"
     objecttolerance="10"
     gridtolerance="10"
     guidetolerance="10"
     inkscape:pageopacity="0"
     inkscape:pageshadow="2"
     inkscape:window-width="1366"
     inkscape:window-height="705"
     id="namedview3048"
     showgrid="false"
     inkscape:zoom="32.375"
     inkscape:cx="8"
     inkscape:cy="8"
     inkscape:window-x="0"
     inkscape:window-y="27"
     inkscape:window-maximized="1"
     inkscape:current-layer="Layer_1" /><g
     id="g3042"
     style="fill:#bebebe;fill-opacity:0.94509804"
     transform="matrix(0.15818433,0,0,0.15818433,0.25010162,2.6641267)"><path
       d="M 82.324,26.716 C 82.607,22.101 81.417,17.921 78.842,14.673 75.863,10.915 71.306,8.761 66.338,8.761 63.223,8.761 60.168,9.609 57.421,11.2 52.298,4.027 45.078,0 37.084,0 29.185,0 21.588,4.039 17.262,10.54 13.77,15.787 12.749,21.907 14.266,28.11 2.251,33.365 -0.913,43.35 0.211,50.82 c 1.44,9.578 9.213,16.531 18.47,16.531 0.354,0 35.826,0.113 57.316,0.113 14.135,0 21.28,-9.922 21.938,-19.143 0.604,-8.46 -4.096,-18.269 -15.611,-21.605 z m 7.632,21.038 c -0.416,5.828 -4.894,11.711 -13.958,11.711 -21.478,0 -56.937,-0.113 -57.305,-0.113 -5.98,0 -9.845,-4.891 -10.571,-9.721 -1.034,-6.879 3.571,-12.594 12.319,-15.285 1.079,-0.332 1.967,-1.104 2.445,-2.127 0.479,-1.021 0.504,-2.199 0.067,-3.24 -2.08,-4.971 -1.737,-9.944 0.966,-14.006 C 26.784,10.672 31.828,8 37.084,8 c 6.396,0 11.976,3.872 15.707,10.902 0.591,1.112 1.672,1.882 2.917,2.076 1.241,0.193 2.508,-0.209 3.41,-1.089 2.067,-2.019 4.631,-3.129 7.219,-3.129 2.511,0 4.783,1.051 6.235,2.883 1.785,2.251 2.255,5.46 1.36,9.281 -0.257,1.093 -0.041,2.241 0.592,3.168 0.632,0.927 1.625,1.544 2.734,1.705 9.364,1.342 13.124,7.976 12.698,13.957 z"
       id="path3044"
       style="fill:#bebebe;fill-opacity:0.94509804"
       inkscape:connector-curvature="0" /><path
       d="m 35.656,12.015 c -8.231,0.726 -10.744,7.292 -10.425,11.528 0.139,1.838 1.673,3.236 3.485,3.236 0.09,0 0.179,-0.003 0.269,-0.01 1.927,-0.146 3.372,-1.826 3.227,-3.754 -0.063,-0.855 0.037,-3.674 4.061,-4.028 1.925,-0.17 3.349,-1.868 3.179,-3.794 -0.171,-1.924 -1.869,-3.358 -3.796,-3.178 z"
       id="path3046"
       style="fill:#bebebe;fill-opacity:0.94509804"
       inkscape:connector-curvature="0" /></g></svg>