<?xml version="1.0" encoding="UTF-8" standalone="no"?>
<svg
   xmlns:dc="http://purl.org/dc/elements/1.1/"
   xmlns:cc="http://creativecommons.org/ns#"
   xmlns:rdf="http://www.w3.org/1999/02/22-rdf-syntax-ns#"
   xmlns:svg="http://www.w3.org/2000/svg"
   xmlns="http://www.w3.org/2000/svg"
   xmlns:sodipodi="http://sodipodi.sourceforge.net/DTD/sodipodi-0.dtd"
   xmlns:inkscape="http://www.inkscape.org/namespaces/inkscape"
   height="16"
   width="16"
   id="svg3819"
   version="1.1"
   inkscape:version="0.48.4 r9939"
   sodipodi:docname="cloud-download-symbolic.svg">
  <metadata
     id="metadata3827">
    <rdf:RDF>
      <cc:Work
         rdf:about="">
        <dc:format>image/svg+xml</dc:format>
        <dc:type
           rdf:resource="http://purl.org/dc/dcmitype/StillImage" />
        <dc:title />
      </cc:Work>
    </rdf:RDF>
  </metadata>
  <defs
     id="defs3825" />
  <sodipodi:namedview
     pagecolor="#ffffff"
     bordercolor="#666666"
     borderopacity="1"
     objecttolerance="10"
     gridtolerance="10"
     guidetolerance="10"
     inkscape:pageopacity="0"
     inkscape:pageshadow="2"
     inkscape:window-width="1366"
     inkscape:window-height="705"
     id="namedview3823"
     showgrid="false"
     inkscape:zoom="32.375"
     inkscape:cx="6.6254826"
     inkscape:cy="8"
     inkscape:window-x="0"
     inkscape:window-y="27"
     inkscape:window-maximized="1"
     inkscape:current-layer="svg3819" />
  <path
     d="m 0.49999814,9.4451332 q 0,1.5242888 1.00785706,2.6164038 1.0078564,1.092122 2.4579505,1.160741 0.1275416,0 0.1275416,-0.127006 v -1.020591 q 0,-0.134323 -0.1275416,-0.134323 -0.9274502,-0.05112 -1.5804085,-0.778207 -0.6529579,-0.727106 -0.6543441,-1.7170178 0,-0.9490312 0.6169137,-1.6513146 Q 2.9648803,7.0915365 3.8701492,6.9776519 L 4.250002,6.9557576 q 0.1344732,0 0.1344732,-0.1270262 L 4.4385387,6.4067769 Q 4.548061,5.1744947 5.4269893,4.3437275 6.3059181,3.5129606 7.4981559,3.5129606 q 1.1783749,0 2.0614629,0.8307669 0.8830872,0.8307672 1.0050842,2.0630485 l 0.05406,0.4423941 q 0,0.1284869 0.128927,0.1284869 h 1.164511 q 0.96072,0 1.669131,0.7344044 0.708415,0.7344042 0.707027,1.7330769 0,0.9899117 -0.652958,1.7170167 -0.652958,0.727104 -1.580408,0.778206 -0.142792,0 -0.142792,0.134325 v 1.020573 q 0,0.127006 0.142792,0.127006 1.441774,-0.04961 2.4427,-1.147598 1.000925,-1.097958 1.002309,-2.6295479 0,-1.0278746 -0.481054,-1.8893018 Q 14.5379,6.6944091 13.713038,6.1965351 12.888177,5.698658 11.912208,5.7015793 H 11.682079 Q 11.329954,4.1758222 10.162671,3.1990501 8.9953847,2.222278 7.4981564,2.222278 q -1.5291142,0 -2.7171929,0.9986727 Q 3.5928844,4.2196239 3.2546217,5.780415 2.0637704,6.0724253 1.2818843,7.1032188 0.49999814,8.1340107 0.49999814,9.4451332 z M 5.5295777,10.605872 q 0,0.264269 0.1816085,0.456994 l 1.8618319,1.981283 q 0.1358591,0.178129 0.4200558,0.178129 0.3049907,0 0.4394644,-0.178129 l 1.8687627,-1.981283 q 0.182995,-0.207325 0.182995,-0.456994 0,-0.262812 -0.18022,-0.440938 -0.180224,-0.1781247 -0.4366943,-0.1781247 -0.2564695,0 -0.4463958,0.1781247 L 8.608601,11.005926 V 7.9763243 q 0,-0.2715691 -0.1788356,-0.4496952 -0.1788357,-0.1781257 -0.4366915,-0.1781257 -0.2578564,0 -0.4269879,0.1781257 Q 7.3969549,7.7047552 7.3969549,7.9763243 V 11.005926 L 6.5984327,10.164934 Q 6.4085067,9.9868093 6.1520369,9.9868093 q -0.2717192,0 -0.446396,0.1737457 -0.1746765,0.173746 -0.1760632,0.445317 z"
     id="path3821"
     style="fill:#bebebe;fill-opacity:1"
     inkscape:connector-curvature="0" />
</svg>
